<svg width="93" height="80" viewBox="0 0 93 80" fill="none" xmlns="http://www.w3.org/2000/svg">
<path d="M7.60327 55.5086C6.16482 55.5086 4.86336 55.2253 3.69889 54.6586C2.54812 54.0795 1.64395 53.2911 0.986371 52.2932C0.32879 51.283 0 50.1496 0 48.893C0 47.6364 0.32879 46.5091 0.986371 45.5112C1.64395 44.501 2.55497 43.7126 3.71944 43.1459C4.88391 42.5669 6.18537 42.2773 7.62382 42.2773C8.74719 42.2773 9.77466 42.4498 10.7062 42.7948C11.6378 43.1274 12.4324 43.6263 13.09 44.2916L11.7543 45.4558C10.672 44.4333 9.32257 43.922 7.70602 43.922C6.63745 43.922 5.67163 44.1376 4.80856 44.5688C3.94548 45 3.26735 45.5975 2.77417 46.3613C2.29468 47.1128 2.05494 47.9567 2.05494 48.893C2.05494 49.8293 2.29468 50.6793 2.77417 51.4431C3.26735 52.1946 3.94548 52.786 4.80856 53.2172C5.67163 53.6483 6.63745 53.8639 7.70602 53.8639C9.30888 53.8639 10.6583 53.3465 11.7543 52.3117L13.09 53.4759C12.4324 54.1411 11.631 54.6462 10.6857 54.9912C9.75411 55.3361 8.72664 55.5086 7.60327 55.5086Z" fill="white"/>
<path d="M25.544 45.5667V55.3608H23.674V53.8824C23.2767 54.3875 22.7493 54.7818 22.0917 55.0651C21.4478 55.3361 20.7423 55.4717 19.9751 55.4717C18.523 55.4717 17.3791 55.1144 16.5434 54.3998C15.7077 53.673 15.2899 52.6073 15.2899 51.2029V45.5667H17.2626V50.9996C17.2626 51.9482 17.5161 52.6689 18.0229 53.1617C18.5298 53.6422 19.2559 53.8824 20.2012 53.8824C21.2423 53.8824 22.0643 53.5991 22.6671 53.0324C23.2699 52.4657 23.5713 51.6649 23.5713 50.63V45.5667H25.544Z" fill="white"/>
<path d="M31.1901 47.2113C31.5326 46.6446 32.0395 46.2135 32.7108 45.9178C33.3821 45.6221 34.1972 45.4743 35.1562 45.4743V47.1929C35.0466 47.1806 34.8959 47.1744 34.7041 47.1744C33.6355 47.1744 32.793 47.4639 32.1765 48.0429C31.5737 48.6096 31.2723 49.4227 31.2723 50.4822V55.3608H29.2996V45.5667H31.1901V47.2113Z" fill="white"/>
<path d="M40.7913 55.4717C39.9009 55.4717 39.0446 55.3669 38.2227 55.1575C37.4007 54.9357 36.7568 54.6586 36.291 54.3259L37.113 52.9215C37.5925 53.2295 38.1747 53.4759 38.8597 53.6607C39.5447 53.8455 40.2365 53.9379 40.9352 53.9379C42.6613 53.9379 43.5244 53.4944 43.5244 52.6073C43.5244 52.3117 43.408 52.0776 43.1751 51.9051C42.9422 51.7326 42.6476 51.6095 42.2915 51.5355C41.949 51.4493 41.4558 51.3569 40.8119 51.2583C39.9351 51.1351 39.2159 50.9935 38.6542 50.8333C38.1062 50.6732 37.6336 50.4021 37.2363 50.0202C36.839 49.6383 36.6404 49.1024 36.6404 48.4125C36.6404 47.5255 37.0514 46.8171 37.8733 46.2874C38.6953 45.7453 39.7981 45.4743 41.1818 45.4743C41.9079 45.4743 42.6339 45.5544 43.36 45.7145C44.0861 45.8747 44.682 46.0903 45.1478 46.3613L44.3053 47.7657C43.4148 47.2483 42.3668 46.9896 41.1612 46.9896C40.3256 46.9896 39.6885 47.1128 39.2501 47.3592C38.8118 47.6056 38.5926 47.932 38.5926 48.3386C38.5926 48.6589 38.7159 48.9115 38.9624 49.0962C39.209 49.281 39.5104 49.4166 39.8666 49.5028C40.2365 49.589 40.7502 49.6876 41.4078 49.7985C42.2846 49.934 42.9901 50.0818 43.5244 50.242C44.0724 50.3898 44.5382 50.6485 44.9218 51.0181C45.3054 51.3877 45.4972 51.9051 45.4972 52.5704C45.4972 53.4574 45.0725 54.1658 44.2231 54.6955C43.3874 55.2129 42.2435 55.4717 40.7913 55.4717Z" fill="white"/>
<path d="M52.6273 55.4717C51.545 55.4717 50.5724 55.2561 49.7093 54.8249C48.8462 54.3937 48.1681 53.8023 47.6749 53.0508C47.1954 52.287 46.9557 51.4247 46.9557 50.4637C46.9557 49.5028 47.1954 48.6466 47.6749 47.8951C48.1681 47.1313 48.8462 46.5399 49.7093 46.1211C50.5724 45.6899 51.545 45.4743 52.6273 45.4743C53.7096 45.4743 54.6754 45.6899 55.5248 46.1211C56.3879 46.5399 57.0591 47.1313 57.5386 47.8951C58.0318 48.6466 58.2784 49.5028 58.2784 50.4637C58.2784 51.4247 58.0318 52.287 57.5386 53.0508C57.0591 53.8023 56.3879 54.3937 55.5248 54.8249C54.6754 55.2561 53.7096 55.4717 52.6273 55.4717ZM52.6273 53.9194C53.326 53.9194 53.9493 53.7777 54.4973 53.4944C55.059 53.1987 55.4974 52.7921 55.8125 52.2747C56.1276 51.745 56.2851 51.1413 56.2851 50.4637C56.2851 49.7861 56.1276 49.1886 55.8125 48.6712C55.4974 48.1415 55.059 47.7349 54.4973 47.4516C53.9493 47.1682 53.326 47.0266 52.6273 47.0266C51.9286 47.0266 51.2985 47.1682 50.7368 47.4516C50.1888 47.7349 49.7504 48.1415 49.4216 48.6712C49.1065 49.1886 48.949 49.7861 48.949 50.4637C48.949 51.1413 49.1065 51.745 49.4216 52.2747C49.7504 52.7921 50.1888 53.1987 50.7368 53.4944C51.2985 53.7777 51.9286 53.9194 52.6273 53.9194Z" fill="white"/>
<path d="M64.1302 55.4717C63.2397 55.4717 62.3835 55.3669 61.5615 55.1575C60.7395 54.9357 60.0956 54.6586 59.6298 54.3259L60.4518 52.9215C60.9313 53.2295 61.5135 53.4759 62.1985 53.6607C62.8835 53.8455 63.5753 53.9379 64.274 53.9379C66.0002 53.9379 66.8632 53.4944 66.8632 52.6073C66.8632 52.3117 66.7468 52.0776 66.5139 51.9051C66.281 51.7326 65.9865 51.6095 65.6303 51.5355C65.2878 51.4493 64.7946 51.3569 64.1507 51.2583C63.2739 51.1351 62.5547 50.9935 61.993 50.8333C61.445 50.6732 60.9724 50.4021 60.5751 50.0202C60.1778 49.6383 59.9792 49.1024 59.9792 48.4125C59.9792 47.5255 60.3902 46.8171 61.2121 46.2874C62.0341 45.7453 63.1369 45.4743 64.5206 45.4743C65.2467 45.4743 65.9728 45.5544 66.6988 45.7145C67.4249 45.8747 68.0208 46.0903 68.4866 46.3613L67.6441 47.7657C66.7536 47.2483 65.7056 46.9896 64.5 46.9896C63.6644 46.9896 63.0273 47.1128 62.589 47.3592C62.1506 47.6056 61.9314 47.932 61.9314 48.3386C61.9314 48.6589 62.0547 48.9115 62.3013 49.0962C62.5479 49.281 62.8492 49.4166 63.2054 49.5028C63.5753 49.589 64.0891 49.6876 64.7466 49.7985C65.6234 49.934 66.3289 50.0818 66.8632 50.242C67.4112 50.3898 67.877 50.6485 68.2606 51.0181C68.6442 51.3877 68.836 51.9051 68.836 52.5704C68.836 53.4574 68.4113 54.1658 67.5619 54.6955C66.7262 55.2129 65.5823 55.4717 64.1302 55.4717Z" fill="white"/>
<path fill-rule="evenodd" clip-rule="evenodd" d="M51.8531 0.00459726L52.6122 0L92.6316 17.4957V18.8807L76.7335 25.831L75.8597 25.7639C56.9823 13.5723 37.0515 20.6736 29.4497 25.7564L28.5956 25.8439L20.521 22.6669L20.2472 24.8219L22.372 26.4733L22.6683 27.0558V32.1063L21.8121 32.8762H17.4264L16.5702 32.1063V27.0558L16.7899 26.5408L18.5255 24.8065L18.8795 22.021L12.1493 19.3729L12.1078 17.9796L51.8531 0.00459726ZM19.4202 26.2145L18.2826 27.3513V31.3363H20.9559V27.4081L19.4202 26.2145ZM52.2442 1.55144L14.5054 18.619L28.8318 24.2559C36.9868 19.0152 57.1754 12.0901 76.441 24.2465L90.2989 18.1882L52.2442 1.55144ZM32.8102 27.4372V33.8175H31.0978V27.0558L31.4274 26.4487C37.8527 21.942 55.3311 15.7333 74.3454 26.4026L74.7484 27.0558V31.5356H73.0359V27.4855C55.2535 17.7266 39.0277 23.2777 32.8102 27.4372ZM72.2136 36.8421C62.8997 31.9326 55.8767 31.1772 51.2243 31.6099C48.8796 31.8279 47.1173 32.3494 45.9479 32.8112L45.164 33.1209L44.4754 31.7109L45.2593 31.4013C46.5756 30.8814 48.5102 30.3141 51.0482 30.0781C56.1851 29.6004 63.7142 30.4866 73.5086 35.7417L73.9261 36.4029V62.868L73.0699 63.638H59.2926V71.1453L58.4364 71.9153H47.7336V79.23L46.8773 80H16.5702V78.46H46.0211V71.1453L46.8773 70.3753H57.5802V62.868L58.4364 62.0981H72.2136V36.8421Z" fill="white"/>
<path d="M11.8178 73.0024V74.6102H1.37866V61.6746H11.5301V63.2823H3.4336V67.2553H10.6464V68.8261H3.4336V73.0024H11.8178Z" fill="white"/>
<path d="M24.3102 71.3763H16.6658L15.0835 74.6102H12.9669L19.4811 61.6746H21.5155L28.0502 74.6102H25.8925L24.3102 71.3763ZM23.591 69.8979L20.488 63.5595L17.385 69.8979H23.591Z" fill="white"/>
<path d="M30.196 61.6746H36.258C37.7787 61.6746 39.1281 61.9456 40.3063 62.4877C41.4844 63.0297 42.3955 63.7935 43.0393 64.7791C43.6969 65.7524 44.0257 66.8734 44.0257 68.1424C44.0257 69.4113 43.6969 70.5385 43.0393 71.5241C42.3955 72.4973 41.4844 73.255 40.3063 73.7971C39.1281 74.3391 37.7787 74.6102 36.258 74.6102H30.196V61.6746ZM36.1348 73.0024C37.2992 73.0024 38.3198 72.7992 39.1966 72.3926C40.0871 71.9861 40.7721 71.4194 41.2515 70.6925C41.731 69.9533 41.9708 69.1033 41.9708 68.1424C41.9708 67.1814 41.731 66.3375 41.2515 65.6107C40.7721 64.8715 40.0871 64.2986 39.1966 63.8921C38.3198 63.4855 37.2992 63.2823 36.1348 63.2823H32.2509V73.0024H36.1348Z" fill="white"/>
</svg>
