<?xml version="1.0" encoding="utf-8"?><svg xmlns="http://www.w3.org/2000/svg" xmlns:xlink="http://www.w3.org/1999/xlink"><symbol fill="none" viewBox="0 0 38 70" id="arrow-slide" xmlns="http://www.w3.org/2000/svg"><path d="M3 3l32 33.736L3 67" stroke="#fff" stroke-width="5" stroke-linecap="round" stroke-linejoin="round"/></symbol><symbol fill="none" viewBox="0 0 17 29" id="arrow-slide-mobile" xmlns="http://www.w3.org/2000/svg"><path d="M2.929 3.071l11.428 12.05L2.93 25.928" stroke="#fff" stroke-width="5" stroke-linecap="round" stroke-linejoin="round"/></symbol><symbol fill="none" viewBox="0 0 223 208" id="logo" xmlns="http://www.w3.org/2000/svg"><path d="M78.58 147.384c-3.36 0-6.4-.736-9.12-2.208-2.688-1.504-4.8-3.552-6.336-6.144-1.536-2.624-2.304-5.568-2.304-8.832 0-3.264.768-6.192 2.304-8.784 1.536-2.624 3.664-4.672 6.384-6.144 2.72-1.504 5.76-2.256 9.12-2.256 2.624 0 5.024.448 7.2 1.344a14.505 14.505 0 015.568 3.888l-3.12 3.024c-2.528-2.656-5.68-3.984-9.456-3.984-2.496 0-4.752.56-6.768 1.68a12.304 12.304 0 00-4.752 4.656c-1.12 1.952-1.68 4.144-1.68 6.576 0 2.432.56 4.64 1.68 6.624 1.152 1.952 2.736 3.488 4.752 4.608 2.016 1.12 4.272 1.68 6.768 1.68 3.744 0 6.896-1.344 9.456-4.032l3.12 3.024c-1.536 1.728-3.408 3.04-5.616 3.936-2.176.896-4.576 1.344-7.2 1.344zm41.906-25.824V147h-4.368v-3.84c-.928 1.312-2.16 2.336-3.696 3.072-1.504.704-3.152 1.056-4.944 1.056-3.392 0-6.064-.928-8.016-2.784-1.952-1.888-2.928-4.656-2.928-8.304v-14.64h4.608v14.112c0 2.464.592 4.336 1.776 5.616 1.184 1.248 2.88 1.872 5.088 1.872 2.432 0 4.352-.736 5.76-2.208 1.408-1.472 2.112-3.552 2.112-6.24V121.56h4.608zm13.189 4.272c.8-1.472 1.984-2.592 3.552-3.36 1.568-.768 3.472-1.152 5.712-1.152v4.464a8.996 8.996 0 00-1.056-.048c-2.496 0-4.464.752-5.904 2.256-1.408 1.472-2.112 3.584-2.112 6.336V147h-4.608v-25.44h4.416v4.272zm22.427 21.456c-2.08 0-4.08-.272-6-.816-1.92-.576-3.424-1.296-4.512-2.16l1.92-3.648c1.12.8 2.48 1.44 4.08 1.92s3.216.72 4.848.72c4.032 0 6.048-1.152 6.048-3.456 0-.768-.272-1.376-.816-1.824-.544-.448-1.232-.768-2.064-.96-.8-.224-1.952-.464-3.456-.72-2.048-.32-3.728-.688-5.04-1.104a7.747 7.747 0 01-3.312-2.112c-.928-.992-1.392-2.384-1.392-4.176 0-2.304.96-4.144 2.88-5.52 1.92-1.408 4.496-2.112 7.728-2.112 1.696 0 3.392.208 5.088.624 1.696.416 3.088.976 4.176 1.68l-1.968 3.648c-2.08-1.344-4.528-2.016-7.344-2.016-1.952 0-3.44.32-4.464.96-1.024.64-1.536 1.488-1.536 2.544 0 .832.288 1.488.864 1.968.576.48 1.28.832 2.112 1.056.864.224 2.064.48 3.6.768 2.048.352 3.696.736 4.944 1.152a7.22 7.22 0 013.264 2.016c.896.96 1.344 2.304 1.344 4.032 0 2.304-.992 4.144-2.976 5.52-1.952 1.344-4.624 2.016-8.016 2.016zm27.646 0c-2.528 0-4.8-.56-6.816-1.68-2.016-1.12-3.6-2.656-4.752-4.608-1.12-1.984-1.68-4.224-1.68-6.72 0-2.496.56-4.72 1.68-6.672a11.967 11.967 0 014.752-4.608c2.016-1.12 4.288-1.68 6.816-1.68 2.528 0 4.784.56 6.768 1.68a11.645 11.645 0 014.704 4.608c1.152 1.952 1.728 4.176 1.728 6.672 0 2.496-.576 4.736-1.728 6.72-1.12 1.952-2.688 3.488-4.704 4.608-1.984 1.12-4.24 1.68-6.768 1.68zm0-4.032c1.632 0 3.088-.368 4.368-1.104a8.122 8.122 0 003.072-3.168c.736-1.376 1.104-2.944 1.104-4.704 0-1.76-.368-3.312-1.104-4.656-.736-1.376-1.76-2.432-3.072-3.168-1.28-.736-2.736-1.104-4.368-1.104-1.632 0-3.104.368-4.416 1.104-1.28.736-2.304 1.792-3.072 3.168-.736 1.344-1.104 2.896-1.104 4.656 0 1.76.368 3.328 1.104 4.704.768 1.344 1.792 2.4 3.072 3.168 1.312.736 2.784 1.104 4.416 1.104zm26.869 4.032c-2.08 0-4.08-.272-6-.816-1.92-.576-3.424-1.296-4.512-2.16l1.92-3.648c1.12.8 2.48 1.44 4.08 1.92s3.216.72 4.848.72c4.032 0 6.048-1.152 6.048-3.456 0-.768-.272-1.376-.816-1.824-.544-.448-1.232-.768-2.064-.96-.8-.224-1.952-.464-3.456-.72-2.048-.32-3.728-.688-5.04-1.104a7.747 7.747 0 01-3.312-2.112c-.928-.992-1.392-2.384-1.392-4.176 0-2.304.96-4.144 2.88-5.52 1.92-1.408 4.496-2.112 7.728-2.112 1.696 0 3.392.208 5.088.624 1.696.416 3.088.976 4.176 1.68l-1.968 3.648c-2.08-1.344-4.528-2.016-7.344-2.016-1.952 0-3.44.32-4.464.96-1.024.64-1.536 1.488-1.536 2.544 0 .832.288 1.488.864 1.968.576.48 1.28.832 2.112 1.056.864.224 2.064.48 3.6.768 2.048.352 3.696.736 4.944 1.152a7.22 7.22 0 013.264 2.016c.896.96 1.344 2.304 1.344 4.032 0 2.304-.992 4.144-2.976 5.52-1.952 1.344-4.624 2.016-8.016 2.016z" fill="#000"/><path d="M141.859 86.042V70.478c-14.513-11.319-54.423-27.166-97.961 0v9.636M170.244 56.16l17.073-7.47L94.479 2 50.107 23.571 22.547 36.97 1 47.445l37.135 18.053c45.075-32.372 92.626-13.488 110.766 0l21.343-9.338zm0 0l1.067 9.338m0 0l4.482 4.98v13.119h-10.245V70.478l5.763-4.98zm-61.336 18.099c-2.903-1.275-7.22-2.69-12.923-3.279-11.514-1.19-28.674.98-51.233 14.44V163.5H80V185h27v21h68.793" stroke="#000" stroke-width="4" stroke-linecap="square" stroke-linejoin="bevel"/><path d="M145.424 189.824V194H121.04v-33.6h23.712v4.176H125.84v10.32h16.848v4.08H125.84v10.848h19.584zm29.18-4.224h-17.856l-3.696 8.4h-4.944l15.216-33.6h4.752L183.34 194h-5.04l-3.696-8.4zm-1.68-3.84l-7.248-16.464-7.248 16.464h14.496zm15.429-21.36h14.16c3.552 0 6.704.704 9.456 2.112 2.752 1.408 4.88 3.392 6.384 5.952 1.536 2.528 2.304 5.44 2.304 8.736 0 3.296-.768 6.224-2.304 8.784-1.504 2.528-3.632 4.496-6.384 5.904-2.752 1.408-5.904 2.112-9.456 2.112h-14.16v-33.6zm13.872 29.424c2.72 0 5.104-.528 7.152-1.584 2.08-1.056 3.68-2.528 4.8-4.416 1.12-1.92 1.68-4.128 1.68-6.624 0-2.496-.56-4.688-1.68-6.576-1.12-1.92-2.72-3.408-4.8-4.464-2.048-1.056-4.432-1.584-7.152-1.584h-9.072v25.248h9.072z" fill="#000"/></symbol><symbol fill="none" viewBox="0 0 93 80" id="logo-white" xmlns="http://www.w3.org/2000/svg"><path d="M7.603 55.509c-1.438 0-2.74-.284-3.904-.85-1.15-.58-2.055-1.368-2.713-2.366C.33 51.283 0 50.15 0 48.893c0-1.257.329-2.384.986-3.382.658-1.01 1.569-1.798 2.733-2.365 1.165-.58 2.466-.869 3.905-.869 1.123 0 2.15.173 3.082.518a6.257 6.257 0 012.384 1.497l-1.336 1.164c-1.082-1.023-2.431-1.534-4.048-1.534-1.069 0-2.034.216-2.897.647-.864.431-1.542 1.028-2.035 1.792-.48.752-.72 1.596-.72 2.532 0 .936.24 1.786.72 2.55.493.752 1.171 1.343 2.035 1.774.863.431 1.828.647 2.897.647 1.603 0 2.952-.517 4.048-1.552l1.336 1.164c-.658.665-1.459 1.17-2.404 1.515-.932.345-1.96.518-3.083.518zm17.941-9.942v9.794h-1.87v-1.479c-.397.506-.925.9-1.582 1.183a5.402 5.402 0 01-2.117.407c-1.452 0-2.596-.358-3.432-1.072-.835-.727-1.253-1.793-1.253-3.197v-5.636h1.973V51c0 .948.253 1.669.76 2.162.507.48 1.233.72 2.178.72 1.041 0 1.863-.283 2.466-.85.603-.566.904-1.367.904-2.402v-5.063h1.973zm5.646 1.644c.343-.566.85-.997 1.52-1.293.672-.296 1.487-.444 2.446-.444v1.719a4.284 4.284 0 00-.452-.019c-1.069 0-1.911.29-2.528.869-.602.567-.904 1.38-.904 2.44v4.878H29.3v-9.794h1.89v1.644zm9.601 8.261c-.89 0-1.746-.105-2.568-.315-.822-.221-1.466-.498-1.932-.831l.822-1.404c.48.308 1.062.554 1.747.739a7.935 7.935 0 002.075.277c1.726 0 2.59-.444 2.59-1.33a.828.828 0 00-.35-.703 2.228 2.228 0 00-.883-.37 17.062 17.062 0 00-1.48-.277c-.877-.123-1.596-.265-2.158-.425a3.38 3.38 0 01-1.418-.813c-.397-.382-.596-.918-.596-1.608 0-.886.411-1.595 1.233-2.125.822-.542 1.925-.813 3.309-.813.726 0 1.452.08 2.178.24.726.16 1.322.376 1.788.647l-.843 1.405c-.89-.518-1.938-.776-3.144-.776-.835 0-1.473.123-1.91.37-.44.246-.658.572-.658.979 0 .32.123.572.37.757.246.185.547.32.904.407.37.086.883.185 1.54.295.878.136 1.583.284 2.117.444a3.162 3.162 0 011.398.776c.383.37.575.887.575 1.552 0 .887-.425 1.596-1.274 2.126-.836.517-1.98.776-3.432.776zm11.836 0c-1.082 0-2.055-.216-2.918-.647-.863-.431-1.54-1.023-2.034-1.774-.48-.764-.72-1.626-.72-2.587 0-.961.24-1.817.72-2.569.493-.764 1.171-1.355 2.034-1.774.863-.431 1.836-.647 2.918-.647 1.083 0 2.048.216 2.898.647.863.419 1.534 1.01 2.014 1.774.493.752.74 1.608.74 2.569 0 .96-.247 1.823-.74 2.587-.48.751-1.151 1.343-2.014 1.774-.85.431-1.815.647-2.898.647zm0-1.553c.699 0 1.322-.141 1.87-.425.562-.295 1-.702 1.316-1.22.315-.529.472-1.133.472-1.81 0-.678-.157-1.275-.472-1.793a3.144 3.144 0 00-1.316-1.22c-.548-.283-1.171-.424-1.87-.424-.698 0-1.329.141-1.89.425-.548.283-.987.69-1.315 1.22-.316.517-.473 1.114-.473 1.792 0 .677.157 1.281.473 1.81a3.5 3.5 0 001.315 1.22c.561.284 1.192.425 1.89.425zm11.503 1.553c-.89 0-1.746-.105-2.568-.315-.822-.221-1.466-.498-1.932-.831l.822-1.404c.48.308 1.062.554 1.747.739a7.935 7.935 0 002.075.277c1.726 0 2.59-.444 2.59-1.33a.828.828 0 00-.35-.703 2.227 2.227 0 00-.884-.37 17.062 17.062 0 00-1.48-.277c-.876-.123-1.595-.265-2.157-.425a3.38 3.38 0 01-1.418-.813c-.397-.382-.596-.918-.596-1.608 0-.886.411-1.595 1.233-2.125.822-.542 1.925-.813 3.309-.813.726 0 1.452.08 2.178.24.726.16 1.322.376 1.788.647l-.843 1.405c-.89-.518-1.938-.776-3.144-.776-.836 0-1.473.123-1.911.37-.438.246-.658.572-.658.979 0 .32.124.572.37.757.247.185.548.32.904.407.37.086.884.185 1.542.295.876.136 1.582.284 2.116.444a3.162 3.162 0 011.398.776c.383.37.575.887.575 1.552 0 .887-.425 1.596-1.274 2.126-.836.517-1.98.776-3.432.776z" fill="#fff"/><path fill-rule="evenodd" clip-rule="evenodd" d="M51.853.005l.76-.005 40.019 17.496v1.385l-15.898 6.95-.874-.067c-18.878-12.192-38.809-5.09-46.41-.008l-.854.088-8.075-3.177-.274 2.155 2.125 1.651.296.583v5.05l-.856.77h-4.386l-.856-.77v-5.05l.22-.515 1.736-1.735.354-2.785-6.73-2.648-.042-1.393L51.853.005zM19.42 26.215l-1.137 1.136v3.985h2.673v-3.928l-1.536-1.194zM52.244 1.55L14.505 18.62l14.327 5.637c8.155-5.24 28.343-12.166 47.609-.01l13.858-6.058L52.244 1.551zM32.81 27.437v6.38h-1.712v-6.761l.33-.607c6.425-4.507 23.903-10.716 42.917-.046l.403.653v4.48h-1.712v-4.05c-17.782-9.76-34.008-4.208-40.226-.049zm39.404 9.405c-9.314-4.91-16.337-5.665-20.99-5.232-2.344.218-4.107.74-5.276 1.201l-.784.31-.689-1.41.784-.31c1.317-.52 3.251-1.087 5.79-1.323 5.136-.478 12.665.409 22.46 5.664l.417.66v26.466l-.856.77H59.293v7.507l-.857.77H47.734v7.315l-.857.77H16.57v-1.54h29.451v-7.315l.856-.77H57.58v-7.507l.856-.77h13.778V36.842z" fill="#fff"/><path d="M11.818 73.002v1.608H1.378V61.675H11.53v1.607H3.434v3.973h7.212v1.571H3.434v4.176h8.384zm12.492-1.626h-7.644l-1.582 3.234h-2.117l6.514-12.935h2.034L28.05 74.61h-2.158l-1.582-3.234zm-.719-1.478l-3.103-6.338-3.103 6.338h6.206zm6.605-8.223h6.062c1.52 0 2.87.27 4.048.813 1.178.542 2.09 1.306 2.733 2.291.658.973.987 2.094.987 3.363 0 1.27-.33 2.397-.987 3.382-.644.973-1.555 1.731-2.733 2.273-1.178.542-2.527.813-4.048.813h-6.062V61.675zm5.939 11.327c1.164 0 2.185-.203 3.062-.61.89-.406 1.575-.973 2.054-1.7.48-.739.72-1.589.72-2.55 0-.96-.24-1.804-.72-2.531-.479-.74-1.164-1.312-2.054-1.719-.877-.407-1.898-.61-3.062-.61H32.25v9.72h3.884z" fill="#fff"/></symbol><symbol fill="none" viewBox="0 0 30 11" id="mobile" xmlns="http://www.w3.org/2000/svg"><path d="M1 1l14 8.5L29 1" stroke="#fff" stroke-width="2" stroke-linecap="round" stroke-linejoin="round"/></symbol><symbol fill="none" viewBox="0 0 594 492" id="path" xmlns="http://www.w3.org/2000/svg"><path d="M21.411 1.607C9.063 1.067 3.998 4.923 2 15.05V53c1.998 10.127 16.152 16.042 28.5 15.502h542.522c12.349-.541 16.98 14.373 18.978 24.5l.001 84c-1.999 10.126-6.63 15.863-18.979 15.322H21.412C9.062 191.783 3.997 197.875 2 208.002v82.876c1.998 10.126 7.063 13.983 19.411 13.442h551.611c12.349-.541 16.98 6.933 18.978 17.06V384c-1.998 10.127-6.63 25.041-18.978 24.5H433c-7.5 1-21.6 6.6-18 21v61" stroke="#AA5FFE" stroke-width="3" stroke-linecap="round" stroke-linejoin="round" stroke-dasharray="10 10"/></symbol></svg>