<svg width="223" height="208" viewBox="0 0 223 208" fill="none" xmlns="http://www.w3.org/2000/svg">
<path d="M78.5796 147.384C75.2196 147.384 72.1796 146.648 69.4596 145.176C66.7716 143.672 64.6596 141.624 63.1236 139.032C61.5876 136.408 60.8196 133.464 60.8196 130.2C60.8196 126.936 61.5876 124.008 63.1236 121.416C64.6596 118.792 66.7876 116.744 69.5076 115.272C72.2276 113.768 75.2676 113.016 78.6276 113.016C81.2516 113.016 83.6516 113.464 85.8276 114.36C88.0036 115.224 89.8596 116.52 91.3956 118.248L88.2756 121.272C85.7476 118.616 82.5956 117.288 78.8196 117.288C76.3236 117.288 74.0676 117.848 72.0516 118.968C70.0356 120.088 68.4516 121.64 67.2996 123.624C66.1796 125.576 65.6196 127.768 65.6196 130.2C65.6196 132.632 66.1796 134.84 67.2996 136.824C68.4516 138.776 70.0356 140.312 72.0516 141.432C74.0676 142.552 76.3236 143.112 78.8196 143.112C82.5636 143.112 85.7156 141.768 88.2756 139.08L91.3956 142.104C89.8596 143.832 87.9876 145.144 85.7796 146.04C83.6036 146.936 81.2036 147.384 78.5796 147.384ZM120.486 121.56V147H116.118V143.16C115.19 144.472 113.958 145.496 112.422 146.232C110.918 146.936 109.27 147.288 107.478 147.288C104.086 147.288 101.414 146.36 99.4622 144.504C97.5103 142.616 96.5343 139.848 96.5343 136.2V121.56H101.142V135.672C101.142 138.136 101.734 140.008 102.918 141.288C104.102 142.536 105.798 143.16 108.006 143.16C110.438 143.16 112.358 142.424 113.766 140.952C115.174 139.48 115.878 137.4 115.878 134.712V121.56H120.486ZM133.675 125.832C134.475 124.36 135.659 123.24 137.227 122.472C138.795 121.704 140.699 121.32 142.939 121.32V125.784C142.683 125.752 142.331 125.736 141.883 125.736C139.387 125.736 137.419 126.488 135.979 127.992C134.571 129.464 133.867 131.576 133.867 134.328V147H129.259V121.56H133.675V125.832ZM156.102 147.288C154.022 147.288 152.022 147.016 150.102 146.472C148.182 145.896 146.678 145.176 145.59 144.312L147.51 140.664C148.63 141.464 149.99 142.104 151.59 142.584C153.19 143.064 154.806 143.304 156.438 143.304C160.47 143.304 162.486 142.152 162.486 139.848C162.486 139.08 162.214 138.472 161.67 138.024C161.126 137.576 160.438 137.256 159.606 137.064C158.806 136.84 157.654 136.6 156.15 136.344C154.102 136.024 152.422 135.656 151.11 135.24C149.83 134.824 148.726 134.12 147.798 133.128C146.87 132.136 146.406 130.744 146.406 128.952C146.406 126.648 147.366 124.808 149.286 123.432C151.206 122.024 153.782 121.32 157.014 121.32C158.71 121.32 160.406 121.528 162.102 121.944C163.798 122.36 165.19 122.92 166.278 123.624L164.31 127.272C162.23 125.928 159.782 125.256 156.966 125.256C155.014 125.256 153.526 125.576 152.502 126.216C151.478 126.856 150.966 127.704 150.966 128.76C150.966 129.592 151.254 130.248 151.83 130.728C152.406 131.208 153.11 131.56 153.942 131.784C154.806 132.008 156.006 132.264 157.542 132.552C159.59 132.904 161.238 133.288 162.486 133.704C163.766 134.088 164.854 134.76 165.75 135.72C166.646 136.68 167.094 138.024 167.094 139.752C167.094 142.056 166.102 143.896 164.118 145.272C162.166 146.616 159.494 147.288 156.102 147.288ZM183.748 147.288C181.22 147.288 178.948 146.728 176.932 145.608C174.916 144.488 173.332 142.952 172.18 141C171.06 139.016 170.5 136.776 170.5 134.28C170.5 131.784 171.06 129.56 172.18 127.608C173.332 125.624 174.916 124.088 176.932 123C178.948 121.88 181.22 121.32 183.748 121.32C186.276 121.32 188.532 121.88 190.516 123C192.532 124.088 194.1 125.624 195.22 127.608C196.372 129.56 196.948 131.784 196.948 134.28C196.948 136.776 196.372 139.016 195.22 141C194.1 142.952 192.532 144.488 190.516 145.608C188.532 146.728 186.276 147.288 183.748 147.288ZM183.748 143.256C185.38 143.256 186.836 142.888 188.116 142.152C189.428 141.384 190.452 140.328 191.188 138.984C191.924 137.608 192.292 136.04 192.292 134.28C192.292 132.52 191.924 130.968 191.188 129.624C190.452 128.248 189.428 127.192 188.116 126.456C186.836 125.72 185.38 125.352 183.748 125.352C182.116 125.352 180.644 125.72 179.332 126.456C178.052 127.192 177.028 128.248 176.26 129.624C175.524 130.968 175.156 132.52 175.156 134.28C175.156 136.04 175.524 137.608 176.26 138.984C177.028 140.328 178.052 141.384 179.332 142.152C180.644 142.888 182.116 143.256 183.748 143.256ZM210.617 147.288C208.537 147.288 206.537 147.016 204.617 146.472C202.697 145.896 201.193 145.176 200.105 144.312L202.025 140.664C203.145 141.464 204.505 142.104 206.105 142.584C207.705 143.064 209.321 143.304 210.953 143.304C214.985 143.304 217.001 142.152 217.001 139.848C217.001 139.08 216.729 138.472 216.185 138.024C215.641 137.576 214.953 137.256 214.121 137.064C213.321 136.84 212.169 136.6 210.665 136.344C208.617 136.024 206.937 135.656 205.625 135.24C204.345 134.824 203.241 134.12 202.313 133.128C201.385 132.136 200.921 130.744 200.921 128.952C200.921 126.648 201.881 124.808 203.801 123.432C205.721 122.024 208.297 121.32 211.529 121.32C213.225 121.32 214.921 121.528 216.617 121.944C218.313 122.36 219.705 122.92 220.793 123.624L218.825 127.272C216.745 125.928 214.297 125.256 211.481 125.256C209.529 125.256 208.041 125.576 207.017 126.216C205.993 126.856 205.481 127.704 205.481 128.76C205.481 129.592 205.769 130.248 206.345 130.728C206.921 131.208 207.625 131.56 208.457 131.784C209.321 132.008 210.521 132.264 212.057 132.552C214.105 132.904 215.753 133.288 217.001 133.704C218.281 134.088 219.369 134.76 220.265 135.72C221.161 136.68 221.609 138.024 221.609 139.752C221.609 142.056 220.617 143.896 218.633 145.272C216.681 146.616 214.009 147.288 210.617 147.288Z" fill="black"/>
<path d="M141.859 86.0418V70.4784C127.346 59.159 87.4359 43.3119 43.8978 70.4784V80.1144M170.244 56.1602L187.317 48.6898L94.4788 2L50.1069 23.5714L22.5463 36.97L1.00002 47.4448L38.1354 65.4982C83.2101 33.1265 130.761 52.01 148.901 65.4982L170.244 56.1602ZM170.244 56.1602L171.311 65.4982M171.311 65.4982L175.793 70.4784V83.5968H165.548V70.4784L171.311 65.4982ZM109.975 83.5968C107.072 82.3218 102.755 80.9077 97.0518 80.318C85.5379 79.1274 68.3783 81.2972 45.8186 94.7572V163.5H80V185H107V206H175.793" stroke="black" stroke-width="4" stroke-linecap="square" stroke-linejoin="bevel"/>
<path d="M145.424 189.824V194H121.04V160.4H144.752V164.576H125.84V174.896H142.688V178.976H125.84V189.824H145.424ZM174.604 185.6H156.748L153.052 194H148.108L163.324 160.4H168.076L183.34 194H178.3L174.604 185.6ZM172.924 181.76L165.676 165.296L158.428 181.76H172.924ZM188.353 160.4H202.513C206.065 160.4 209.217 161.104 211.969 162.512C214.721 163.92 216.849 165.904 218.353 168.464C219.889 170.992 220.657 173.904 220.657 177.2C220.657 180.496 219.889 183.424 218.353 185.984C216.849 188.512 214.721 190.48 211.969 191.888C209.217 193.296 206.065 194 202.513 194H188.353V160.4ZM202.225 189.824C204.945 189.824 207.329 189.296 209.377 188.24C211.457 187.184 213.057 185.712 214.177 183.824C215.297 181.904 215.857 179.696 215.857 177.2C215.857 174.704 215.297 172.512 214.177 170.624C213.057 168.704 211.457 167.216 209.377 166.16C207.329 165.104 204.945 164.576 202.225 164.576H193.153V189.824H202.225Z" fill="black"/>
</svg>
