<svg width="594" height="492" viewBox="0 0 594 492" fill="none" xmlns="http://www.w3.org/2000/svg">
<path d="M21.4113 1.60707C9.06295 1.06627 3.99819 4.92303 2 15.0496V53C3.99819 63.1266 18.1517 69.0424 30.5 68.5016L573.022 68.5016C585.371 67.9608 590.002 82.875 592 93.0016L592.001 177.002C590.002 187.128 585.371 192.865 573.022 192.324L21.4113 192.324C9.06295 191.783 3.99819 197.875 2 208.002V290.878C3.99819 301.004 9.06295 304.861 21.4113 304.32L573.022 304.32C585.371 303.779 590.002 311.253 592 321.38V384C590.002 394.127 585.37 409.041 573.022 408.5H490.5H433C425.5 409.5 411.4 415.1 415 429.5V490.5" stroke="#AA5FFE" stroke-width="3" stroke-linecap="round" stroke-linejoin="round" stroke-dasharray="10 10"/>
</svg>
